<svg width="20" height="20" viewBox="0 0 20 20" fill="none" xmlns="http://www.w3.org/2000/svg">
<path d="M16.6667 3.33337H3.33341C2.41425 3.33337 1.66675 4.08087 1.66675 5.00004V15C1.66675 15.9192 2.41425 16.6667 3.33341 16.6667H16.6667C17.5859 16.6667 18.3334 15.9192 18.3334 15V5.00004C18.3334 4.08087 17.5859 3.33337 16.6667 3.33337ZM16.6667 5.00004V5.42587L10.0001 10.6117L3.33341 5.42671V5.00004H16.6667ZM3.33341 15V7.53671L9.48841 12.3242C9.63434 12.4388 9.81452 12.5011 10.0001 12.5011C10.1856 12.5011 10.3658 12.4388 10.5117 12.3242L16.6667 7.53671L16.6684 15H3.33341Z" fill="#797979"/>
</svg>
