<svg width="20" height="20" viewBox="0 0 20 20" fill="none" xmlns="http://www.w3.org/2000/svg">
<path d="M15.9567 2.47579C15.8081 2.22967 15.5987 2.02595 15.3485 1.88423C15.0983 1.74252 14.8159 1.66758 14.5284 1.66663H5.47175C4.89008 1.66663 4.34258 1.97663 4.04341 2.47579L1.78591 6.23746C1.70799 6.36705 1.6668 6.51541 1.66675 6.66663C1.67008 7.47097 1.96633 8.24655 2.50008 8.84829V15.8333C2.50008 16.7525 3.24758 17.5 4.16675 17.5H15.8334C16.7526 17.5 17.5001 16.7525 17.5001 15.8333V8.84829C18.0338 8.24655 18.3301 7.47097 18.3334 6.66663C18.3334 6.51541 18.2922 6.36705 18.2142 6.23746L15.9567 2.47579ZM16.6534 6.87579C16.6025 7.27836 16.4065 7.64852 16.1021 7.91685C15.7977 8.18518 15.4059 8.33325 15.0001 8.33329C14.0809 8.33329 13.3334 7.58579 13.3334 6.66663C13.3334 6.60996 13.3126 6.55996 13.3009 6.50663L13.3176 6.50329L12.6834 3.33329H14.5284L16.6534 6.87579ZM9.01591 3.33329H10.9834L11.6609 6.72079C11.6317 7.61413 10.9001 8.33329 10.0001 8.33329C9.10008 8.33329 8.36841 7.61413 8.33925 6.72079L9.01591 3.33329ZM5.47175 3.33329H7.31675L6.68341 6.50329L6.70008 6.50663C6.68758 6.55996 6.66675 6.60996 6.66675 6.66663C6.66675 7.58579 5.91925 8.33329 5.00008 8.33329C4.59431 8.33325 4.20248 8.18518 3.8981 7.91685C3.59371 7.64852 3.39767 7.27836 3.34675 6.87579L5.47175 3.33329ZM8.33341 15.8333V13.3333H11.6667V15.8333H8.33341ZM13.3334 15.8333V13.3333C13.3334 12.4141 12.5859 11.6666 11.6667 11.6666H8.33341C7.41425 11.6666 6.66675 12.4141 6.66675 13.3333V15.8333H4.16675V9.88163C4.43425 9.95079 4.71008 9.99996 5.00008 9.99996C5.47317 9.99967 5.94079 9.89868 6.37183 9.70371C6.80288 9.50873 7.18749 9.22423 7.50008 8.86913C8.11091 9.56246 9.00591 9.99996 10.0001 9.99996C10.9942 9.99996 11.8892 9.56246 12.5001 8.86913C12.8127 9.22423 13.1973 9.50873 13.6283 9.70371C14.0594 9.89868 14.527 9.99967 15.0001 9.99996C15.2901 9.99996 15.5659 9.95079 15.8334 9.88163V15.8333H13.3334Z" fill="#797979"/>
</svg>
