<svg width="20" height="20" viewBox="0 0 20 20" fill="none" xmlns="http://www.w3.org/2000/svg">
<path d="M10.0001 1.66663C7.79867 1.6947 5.69533 2.58169 4.13857 4.13845C2.58181 5.69521 1.69482 7.79855 1.66675 9.99996C1.67704 11.2824 1.98318 12.5451 2.56134 13.6899C3.1395 14.8347 3.97407 15.8305 5.00008 16.6V16.6666H5.08341C6.4944 17.7479 8.22246 18.3338 10.0001 18.3338C11.7777 18.3338 13.5058 17.7479 14.9167 16.6666H15.0001V16.6C16.0261 15.8305 16.8607 14.8347 17.4388 13.6899C18.017 12.5451 18.3231 11.2824 18.3334 9.99996C18.3053 7.79855 17.4184 5.69521 15.8616 4.13845C14.3048 2.58169 12.2015 1.6947 10.0001 1.66663ZM6.72508 15.775C6.84674 15.2178 7.15521 14.719 7.59932 14.3613C8.04343 14.0036 8.59649 13.8085 9.16675 13.8083H10.8334C11.4037 13.8085 11.9567 14.0036 12.4008 14.3613C12.845 14.719 13.1534 15.2178 13.2751 15.775C12.2825 16.359 11.1518 16.6669 10.0001 16.6669C8.84841 16.6669 7.71769 16.359 6.72508 15.775ZM14.6751 14.7C14.3581 13.9424 13.8243 13.2954 13.1409 12.8403C12.4574 12.3851 11.6546 12.142 10.8334 12.1416H9.16675C8.34556 12.142 7.54281 12.3851 6.85931 12.8403C6.17582 13.2954 5.64206 13.9424 5.32508 14.7C4.70063 14.0858 4.20333 13.3546 3.86159 12.5481C3.51985 11.7417 3.34037 10.8758 3.33341 9.99996C3.35503 8.23856 4.06435 6.5554 5.30994 5.30981C6.55552 4.06423 8.23869 3.35491 10.0001 3.33329C11.7615 3.35491 13.4446 4.06423 14.6902 5.30981C15.9358 6.5554 16.6451 8.23856 16.6667 9.99996C16.6598 10.8758 16.4803 11.7417 16.1386 12.5481C15.7968 13.3546 15.2995 14.0858 14.6751 14.7Z" fill="#797979"/>
<path d="M9.99999 5.00003C9.55944 4.98977 9.12139 5.06897 8.71234 5.23285C8.30328 5.39674 7.93171 5.64189 7.62012 5.95349C7.30852 6.26509 7.06336 6.63665 6.89948 7.04571C6.7356 7.45477 6.65639 7.89282 6.66666 8.33336C6.65639 8.77391 6.7356 9.21196 6.89948 9.62102C7.06336 10.0301 7.30852 10.4016 7.62012 10.7132C7.93171 11.0248 8.30328 11.27 8.71234 11.4339C9.12139 11.5978 9.55944 11.677 9.99999 11.6667C10.4405 11.677 10.8786 11.5978 11.2876 11.4339C11.6967 11.27 12.0683 11.0248 12.3799 10.7132C12.6915 10.4016 12.9366 10.0301 13.1005 9.62102C13.2644 9.21196 13.3436 8.77391 13.3333 8.33336C13.3436 7.89282 13.2644 7.45477 13.1005 7.04571C12.9366 6.63665 12.6915 6.26509 12.3799 5.95349C12.0683 5.64189 11.6967 5.39674 11.2876 5.23285C10.8786 5.06897 10.4405 4.98977 9.99999 5.00003ZM9.99999 10C9.77828 10.0107 9.55678 9.97497 9.34972 9.89501C9.14266 9.81504 8.95461 9.69265 8.79765 9.5357C8.6407 9.37874 8.51831 9.1907 8.43834 8.98363C8.35838 8.77657 8.3226 8.55507 8.33332 8.33336C8.3226 8.11165 8.35838 7.89016 8.43834 7.68309C8.51831 7.47603 8.6407 7.28798 8.79765 7.13103C8.95461 6.97407 9.14266 6.85168 9.34972 6.77172C9.55678 6.69175 9.77828 6.65598 9.99999 6.6667C10.2217 6.65598 10.4432 6.69175 10.6503 6.77172C10.8573 6.85168 11.0454 6.97407 11.2023 7.13103C11.3593 7.28798 11.4817 7.47603 11.5616 7.68309C11.6416 7.89016 11.6774 8.11165 11.6667 8.33336C11.6774 8.55507 11.6416 8.77657 11.5616 8.98363C11.4817 9.1907 11.3593 9.37874 11.2023 9.5357C11.0454 9.69265 10.8573 9.81504 10.6503 9.89501C10.4432 9.97497 10.2217 10.0107 9.99999 10Z" fill="#797979"/>
</svg>
